<?xml version="1.0" standalone="no"?>
<!DOCTYPE svg PUBLIC "-//W3C//DTD SVG 20010904//EN"
        "http://www.w3.org/TR/2001/REC-SVG-20010904/DTD/svg10.dtd">
<svg version="1.0" xmlns="http://www.w3.org/2000/svg"
     width="700.000000pt" height="700.000000pt" viewBox="0 0 700.000000 700.000000"
     preserveAspectRatio="xMidYMid meet">
    <metadata>
        Created by potrace 1.11, written by Peter Selinger 2001-2013
    </metadata>
    <g transform="translate(0.000000,700.000000) scale(0.100000,-0.100000)"
       fill="#000000" stroke="none">
        <path d="M1717 6344 c-1 -1 -33 -4 -72 -7 -134 -10 -298 -59 -414 -123 -49
-27 -158 -100 -177 -118 -182 -170 -269 -295 -333 -478 -68 -197 -64 -67 -65
-2083 -1 -1001 2 -1849 6 -1885 31 -283 140 -507 338 -694 179 -168 412 -273
651 -294 109 -9 3658 -7 3724 2 104 15 122 19 197 42 98 31 182 68 236 105 24
16 45 29 48 29 15 0 127 96 186 158 114 121 186 241 242 399 18 54 34 101 34
106 0 4 6 40 13 80 10 56 13 469 13 1922 -1 1689 -2 1857 -17 1936 -35 176
-104 338 -200 464 -55 73 -203 211 -278 260 -138 90 -314 153 -475 171 -53 6
-3650 13 -3657 8z m3698 -458 c231 -64 411 -245 470 -471 16 -61 19 -118 21
-430 1 -198 0 -367 -2 -376 -4 -14 -74 -15 -671 -15 -489 1 -683 -2 -727 -11
-163 -33 -294 -159 -337 -323 -18 -68 -20 -1411 -2 -1500 33 -161 136 -276
295 -331 62 -21 73 -22 753 -23 l690 -1 -1 -375 c0 -418 -3 -441 -70 -575 -88
-178 -255 -305 -459 -351 -16 -4 -852 -7 -1858 -8 -1965 -2 -1889 -4 -2020 49
-156 64 -300 210 -358 365 -40 107 -45 169 -45 540 l1 355 690 1 c678 2 691 2
753 23 81 28 135 62 189 120 40 43 89 127 98 168 2 10 7 36 12 58 5 22 8 355
7 740 -1 638 -2 705 -18 760 -44 148 -153 258 -301 301 -55 16 -122 17 -743
18 -604 0 -682 2 -686 16 -2 8 -3 179 -1 380 2 340 4 370 24 439 73 249 263
421 516 465 54 10 489 12 1895 11 1675 -2 1830 -3 1885 -19z"/>
        <path d="M3420 5453 c-53 -22 -108 -81 -124 -132 -13 -40 -15 -282 -13 -1841
2 -1665 3 -1797 19 -1825 45 -79 126 -125 214 -121 57 3 96 22 141 66 66 65
62 -59 62 1905 -1 1903 1 1819 -50 1883 -54 68 -170 98 -249 65z"/>
    </g>
</svg>
